<?xml version="1.0" encoding="utf-8"?>
<!-- Generator: Adobe Illustrator 25.0.0, SVG Export Plug-In . SVG Version: 6.00 Build 0)  -->
<svg version="1.1" id="Layer_1" xmlns="http://www.w3.org/2000/svg" xmlns:xlink="http://www.w3.org/1999/xlink" x="0px" y="0px"
	 width="437px" height="100px" viewBox="0 0 437 100" style="enable-background:new 0 0 437 100;" xml:space="preserve">
<style type="text/css">
	.st0{fill:#E02227;}
	.st1{fill:#E02228;}
	.st2{fill:#E83033;}
	.st3{fill:#E43137;}
	.st4{fill:none;}
	.st5{fill:#EE1F25;}
	.st6{fill:#F58020;}
</style>
<g>
	<g>
		<path class="st0" d="M84.9,84.8h-1.8c-0.3,0-0.5-0.5-0.2-0.7l0.5-0.4c0.4-0.4,1-0.6,1.5-0.6h1.8c0.3,0,0.5,0.5,0.2,0.7l-0.5,0.4
			C86,84.6,85.4,84.8,84.9,84.8"/>
		<path class="st0" d="M87.2,82.3l-1.8,0.1c-0.3,0-0.5-0.4-0.3-0.7l0.5-0.5c0.4-0.4,0.9-0.7,1.5-0.7l1.8-0.1c0.3,0,0.5,0.4,0.3,0.7
			l-0.5,0.5C88.3,82,87.8,82.2,87.2,82.3"/>
		<path class="st0" d="M89.4,79.6l-1.8,0.3c-0.3,0-0.6-0.4-0.3-0.7l0.4-0.5c0.4-0.4,0.9-0.7,1.5-0.8l1.8-0.3c0.3,0,0.6,0.4,0.3,0.7
			l-0.4,0.5C90.4,79.2,89.9,79.5,89.4,79.6"/>
		<path class="st0" d="M91.3,76.8l-1.8,0.4c-0.3,0.1-0.6-0.3-0.4-0.6l0.4-0.5c0.3-0.5,0.8-0.8,1.4-0.9l1.8-0.4
			c0.3-0.1,0.6,0.3,0.4,0.6l-0.4,0.5C92.4,76.3,91.9,76.6,91.3,76.8"/>
		<path class="st0" d="M93.1,73.8l-1.7,0.5C91,74.4,90.8,74,91,73.7l0.4-0.6c0.3-0.5,0.8-0.8,1.3-1l1.7-0.5c0.3-0.1,0.6,0.3,0.4,0.6
			l-0.4,0.6C94.1,73.3,93.6,73.7,93.1,73.8"/>
		<path class="st0" d="M94.6,70.8L93,71.4c-0.3,0.1-0.6-0.3-0.5-0.6l0.3-0.6c0.3-0.5,0.7-0.9,1.3-1.1l1.7-0.6
			c0.3-0.1,0.6,0.3,0.5,0.6l-0.3,0.6C95.6,70.2,95.2,70.6,94.6,70.8"/>
		<path class="st0" d="M96,67.6l-1.6,0.7c-0.3,0.1-0.6-0.2-0.5-0.5l0.3-0.6c0.2-0.5,0.7-0.9,1.2-1.2l1.6-0.7
			c0.3-0.1,0.6,0.2,0.5,0.5l-0.3,0.6C96.9,67,96.5,67.4,96,67.6"/>
		<path class="st0" d="M97.1,64.3l-1.6,0.8c-0.3,0.2-0.7-0.2-0.5-0.5l0.2-0.6c0.2-0.5,0.6-1,1.1-1.2l1.6-0.8
			c0.3-0.2,0.7,0.2,0.5,0.5l-0.2,0.6C98,63.6,97.6,64.1,97.1,64.3"/>
		<path class="st0" d="M98,61L96.5,62c-0.3,0.2-0.7-0.1-0.6-0.5l0.2-0.6c0.2-0.6,0.5-1,1-1.3l1.5-0.9c0.3-0.2,0.7,0.1,0.6,0.5
			L99,59.7C98.8,60.3,98.5,60.7,98,61"/>
		<path class="st0" d="M98.6,57.6l-1.4,1.1c-0.3,0.2-0.7-0.1-0.6-0.4l0.2-0.7c0.1-0.6,0.5-1.1,0.9-1.4l1.4-1.1
			c0.3-0.2,0.7,0.1,0.6,0.4l-0.2,0.7C99.4,56.8,99.1,57.3,98.6,57.6"/>
		<path class="st0" d="M99.1,54.2l-1.4,1.1c-0.3,0.2-0.7,0-0.6-0.4l0.1-0.7c0.1-0.6,0.4-1.1,0.8-1.4l1.4-1.2c0.3-0.2,0.7,0,0.6,0.4
			l-0.1,0.7C99.8,53.4,99.5,53.9,99.1,54.2"/>
		<path class="st0" d="M99.2,50.8l-1.3,1.2c-0.2,0.2-0.7,0-0.6-0.3l0.1-0.7c0.1-0.6,0.3-1.1,0.7-1.5l1.3-1.2c0.2-0.2,0.7,0,0.6,0.3
			l-0.1,0.7C99.9,49.9,99.6,50.4,99.2,50.8"/>
		<path class="st0" d="M99.2,47.4L98,48.7c-0.2,0.3-0.7,0.1-0.7-0.3l0-0.7c0-0.6,0.2-1.1,0.6-1.5l1.2-1.3c0.2-0.3,0.7-0.1,0.7,0.3
			l0,0.7C99.8,46.4,99.5,47,99.2,47.4"/>
		<path class="st0" d="M98.9,44l-1.1,1.4c-0.2,0.3-0.7,0.1-0.7-0.2l0-0.7c0-0.6,0.1-1.1,0.5-1.6l1.1-1.4c0.2-0.3,0.7-0.1,0.7,0.2
			l0,0.7C99.4,43,99.2,43.5,98.9,44"/>
		<path class="st0" d="M98.3,40.6l-1,1.5c-0.2,0.3-0.7,0.2-0.7-0.2l-0.1-0.7c-0.1-0.6,0.1-1.1,0.4-1.6l1-1.5
			c0.2-0.3,0.7-0.2,0.7,0.2l0.1,0.7C98.8,39.5,98.6,40.1,98.3,40.6"/>
		<path class="st0" d="M97.5,37.2l-0.9,1.5c-0.2,0.3-0.7,0.2-0.7-0.2l-0.1-0.7c-0.1-0.6,0-1.1,0.3-1.6l0.9-1.5
			c0.2-0.3,0.7-0.2,0.7,0.1l0.1,0.7C97.9,36.1,97.8,36.7,97.5,37.2"/>
		<path class="st0" d="M96.5,33.9l-0.8,1.6c-0.1,0.3-0.6,0.2-0.7-0.1l-0.2-0.7c-0.2-0.6-0.1-1.1,0.1-1.6l0.8-1.6
			c0.1-0.3,0.6-0.2,0.7,0.1l0.2,0.7C96.8,32.8,96.8,33.4,96.5,33.9"/>
		<path class="st0" d="M95.3,30.7l-0.7,1.7c-0.1,0.3-0.6,0.3-0.7-0.1l-0.2-0.6c-0.2-0.5-0.2-1.1,0-1.7l0.7-1.7
			c0.1-0.3,0.6-0.3,0.7,0l0.2,0.6C95.5,29.6,95.5,30.2,95.3,30.7"/>
		<path class="st0" d="M93.8,27.6l-0.6,1.7c-0.1,0.3-0.6,0.3-0.7,0l-0.3-0.6c-0.2-0.5-0.3-1.1-0.1-1.7l0.6-1.7
			c0.1-0.3,0.6-0.3,0.7,0l0.3,0.6C94,26.5,94,27.1,93.8,27.6"/>
		<path class="st0" d="M92.2,24.6l-0.4,1.7c-0.1,0.3-0.6,0.4-0.7,0.1l-0.3-0.6c-0.3-0.5-0.3-1.1-0.2-1.6l0.4-1.7
			c0.1-0.3,0.6-0.4,0.7-0.1L92,23C92.2,23.5,92.3,24.1,92.2,24.6"/>
		<path class="st0" d="M90.3,21.7L90,23.5c-0.1,0.3-0.5,0.4-0.7,0.1L88.9,23c-0.3-0.5-0.4-1.1-0.3-1.6l0.3-1.8
			c0.1-0.3,0.5-0.4,0.7-0.1l0.3,0.6C90.3,20.6,90.4,21.2,90.3,21.7"/>
		<path class="st0" d="M88.2,19L88,20.8c0,0.3-0.5,0.4-0.7,0.2l-0.4-0.6c-0.3-0.5-0.5-1-0.4-1.6l0.2-1.8c0-0.3,0.5-0.4,0.7-0.2
			l0.4,0.6C88.1,17.9,88.3,18.4,88.2,19"/>
		<path class="st0" d="M86,16.4l-0.1,1.8c0,0.3-0.5,0.5-0.7,0.2l-0.4-0.5c-0.4-0.5-0.6-1-0.5-1.6l0.1-1.8c0-0.3,0.5-0.5,0.7-0.2
			l0.4,0.5C85.8,15.3,86,15.8,86,16.4"/>
		<path class="st0" d="M83.5,14l0.1,1.8c0,0.3-0.4,0.5-0.7,0.3l-0.5-0.5c-0.4-0.4-0.6-1-0.6-1.5l-0.1-1.8c0-0.3,0.4-0.5,0.7-0.3
			l0.5,0.5C83.3,12.9,83.5,13.4,83.5,14"/>
		<path class="st0" d="M80.9,11.7l0.2,1.8c0,0.3-0.4,0.5-0.7,0.3L80,13.3c-0.4-0.4-0.7-0.9-0.7-1.5L79,10.1c0-0.3,0.4-0.5,0.7-0.3
			l0.5,0.5C80.6,10.6,80.9,11.2,80.9,11.7"/>
		<path class="st0" d="M78.2,9.7l0.3,1.8c0.1,0.3-0.4,0.6-0.6,0.3l-0.5-0.4c-0.4-0.4-0.7-0.9-0.8-1.4l-0.3-1.8
			c-0.1-0.3,0.4-0.6,0.6-0.3l0.5,0.4C77.8,8.6,78.1,9.1,78.2,9.7"/>
		<path class="st0" d="M75.3,7.8l0.4,1.7c0.1,0.3-0.3,0.6-0.6,0.4l-0.6-0.4c-0.5-0.3-0.8-0.8-0.9-1.4l-0.4-1.7
			c-0.1-0.3,0.3-0.6,0.6-0.4l0.6,0.4C74.8,6.8,75.2,7.2,75.3,7.8"/>
		<path class="st0" d="M72.3,6.1l0.6,1.7c0.1,0.3-0.3,0.6-0.6,0.4l-0.6-0.4c-0.5-0.3-0.9-0.8-1-1.3l-0.6-1.7
			c-0.1-0.3,0.3-0.6,0.6-0.4l0.6,0.4C71.8,5.1,72.1,5.6,72.3,6.1"/>
		<path class="st0" d="M69.2,4.7l0.7,1.7C70,6.7,69.6,7,69.3,6.8l-0.6-0.3c-0.5-0.3-0.9-0.7-1.1-1.2l-0.7-1.7
			c-0.1-0.3,0.2-0.6,0.6-0.5l0.6,0.3C68.6,3.7,69,4.2,69.2,4.7"/>
		<path class="st0" d="M66,3.4l0.8,1.6c0.2,0.3-0.2,0.6-0.5,0.5l-0.6-0.3c-0.5-0.2-1-0.6-1.2-1.1l-0.8-1.6c-0.1-0.3,0.2-0.6,0.5-0.5
			l0.6,0.3C65.3,2.5,65.7,2.9,66,3.4"/>
		<path class="st0" d="M62.7,2.4L63.6,4c0.2,0.3-0.2,0.7-0.5,0.5l-0.6-0.2c-0.5-0.2-1-0.6-1.3-1l-0.9-1.5c-0.2-0.3,0.2-0.7,0.5-0.5
			l0.6,0.2C62,1.6,62.4,2,62.7,2.4"/>
		<path class="st0" d="M59.3,1.7l1,1.5c0.2,0.3-0.1,0.7-0.4,0.6l-0.7-0.2c-0.6-0.2-1-0.5-1.4-1l-1-1.5c-0.2-0.3,0.1-0.7,0.4-0.6
			L58,0.7C58.6,0.9,59,1.2,59.3,1.7"/>
		<path class="st0" d="M55.9,1.1l1.1,1.4c0.2,0.3-0.1,0.7-0.4,0.6L56,3c-0.6-0.1-1.1-0.4-1.4-0.9l-1.1-1.4c-0.2-0.3,0.1-0.7,0.4-0.6
			l0.7,0.1C55.1,0.4,55.6,0.7,55.9,1.1"/>
		<path class="st0" d="M52.5,0.8l1.2,1.3c0.2,0.3,0,0.7-0.4,0.6l-0.7-0.1c-0.6-0.1-1.1-0.3-1.5-0.8L50,0.6C49.8,0.4,50,0,50.4,0
			l0.7,0.1C51.6,0.2,52.1,0.4,52.5,0.8"/>
		<path class="st0" d="M49.1,0.8L50.4,2c0.2,0.2,0,0.7-0.3,0.7l-0.7,0c-0.6,0-1.1-0.3-1.5-0.7l-1.3-1.2c-0.2-0.2,0-0.7,0.3-0.7
			l0.7,0C48.2,0.2,48.7,0.4,49.1,0.8"/>
		<path class="st0" d="M45.7,1L47,2.1c0.3,0.2,0.1,0.7-0.3,0.7l-0.7,0c-0.6,0-1.1-0.2-1.6-0.5l-1.4-1.2c-0.3-0.2-0.1-0.7,0.3-0.7
			l0.7,0C44.7,0.4,45.2,0.6,45.7,1"/>
		<path class="st0" d="M42.2,1.4l1.4,1c0.3,0.2,0.1,0.7-0.2,0.7l-0.7,0.1c-0.6,0.1-1.1-0.1-1.6-0.4l-1.4-1.1C39.5,1.5,39.6,1,40,1
			L40.7,1C41.2,0.9,41.8,1.1,42.2,1.4"/>
		<path class="st0" d="M38.9,2.1L40.4,3c0.3,0.2,0.2,0.7-0.2,0.7l-0.7,0.1c-0.6,0.1-1.1,0-1.6-0.3l-1.5-0.9
			c-0.3-0.2-0.2-0.7,0.2-0.7l0.7-0.1C37.8,1.6,38.4,1.8,38.9,2.1"/>
		<path class="st0" d="M35.6,2.9l1.6,0.8C37.4,4,37.4,4.4,37,4.5l-0.7,0.2c-0.6,0.1-1.1,0.1-1.6-0.2l-1.6-0.8
			c-0.3-0.2-0.2-0.6,0.1-0.7l0.7-0.2C34.5,2.6,35.1,2.7,35.6,2.9"/>
		<path class="st0" d="M32.3,4.1l1.6,0.7c0.3,0.1,0.3,0.6-0.1,0.7l-0.7,0.2c-0.6,0.2-1.1,0.1-1.7-0.1l-1.6-0.7
			c-0.3-0.1-0.3-0.6,0.1-0.7L30.7,4C31.2,3.8,31.8,3.8,32.3,4.1"/>
		<path class="st0" d="M29.1,5.4L30.8,6c0.3,0.1,0.3,0.6,0,0.7L30.2,7c-0.5,0.2-1.1,0.2-1.7,0l-1.7-0.6c-0.3-0.1-0.3-0.6,0-0.7
			l0.6-0.2C28,5.2,28.6,5.2,29.1,5.4"/>
		<path class="st0" d="M26.1,7l1.7,0.5c0.3,0.1,0.3,0.6,0,0.7l-0.6,0.3c-0.5,0.2-1.1,0.3-1.6,0.1l-1.7-0.5c-0.3-0.1-0.3-0.6,0-0.7
			l0.6-0.3C25,6.9,25.5,6.8,26.1,7"/>
		<path class="st0" d="M23.1,8.7l1.8,0.4c0.3,0.1,0.4,0.6,0.1,0.7l-0.6,0.3c-0.5,0.3-1.1,0.4-1.6,0.3L21,10.1
			c-0.3-0.1-0.4-0.6-0.1-0.7L21.5,9C22,8.7,22.6,8.6,23.1,8.7"/>
		<path class="st0" d="M20.3,10.7l1.8,0.2c0.3,0,0.4,0.5,0.1,0.7l-0.6,0.4c-0.5,0.3-1.1,0.4-1.6,0.4l-1.8-0.2
			c-0.3,0-0.4-0.5-0.1-0.7l0.6-0.4C19.2,10.8,19.8,10.6,20.3,10.7"/>
		<path class="st0" d="M17.7,12.9l1.8,0.1c0.3,0,0.5,0.5,0.2,0.7l-0.5,0.4c-0.5,0.3-1,0.5-1.6,0.5l-1.8-0.1c-0.3,0-0.5-0.5-0.2-0.7
			l0.5-0.4C16.5,13,17.1,12.8,17.7,12.9"/>
		<path class="st0" d="M15.1,15.2h1.8c0.3,0,0.5,0.5,0.2,0.7l-0.5,0.4c-0.4,0.4-1,0.6-1.5,0.6h-1.8c-0.3,0-0.5-0.5-0.2-0.7l0.5-0.4
			C14,15.4,14.6,15.2,15.1,15.2"/>
		<path class="st0" d="M12.8,17.7l1.8-0.1c0.3,0,0.5,0.4,0.3,0.7l-0.5,0.5c-0.4,0.4-0.9,0.7-1.5,0.7l-1.8,0.1
			c-0.3,0-0.5-0.4-0.3-0.7l0.5-0.5C11.7,18,12.2,17.8,12.8,17.7"/>
		<path class="st0" d="M10.6,20.4l1.8-0.2c0.3,0,0.6,0.4,0.3,0.7l-0.4,0.5c-0.4,0.4-0.9,0.7-1.5,0.8l-1.8,0.3
			c-0.3,0-0.6-0.4-0.3-0.7l0.4-0.5C9.6,20.8,10.1,20.5,10.6,20.4"/>
		<path class="st0" d="M8.7,23.2l1.8-0.4c0.3-0.1,0.6,0.3,0.4,0.6L10.4,24C10,24.5,9.5,24.8,9,24.9l-1.8,0.4
			c-0.3,0.1-0.6-0.3-0.4-0.6l0.4-0.5C7.6,23.7,8.1,23.4,8.7,23.2"/>
		<path class="st0" d="M6.9,26.2l1.7-0.5C9,25.6,9.2,26,9,26.3l-0.4,0.6c-0.3,0.5-0.8,0.8-1.3,1l-1.7,0.5C5.3,28.4,5,28,5.2,27.7
			l0.4-0.6C5.9,26.7,6.4,26.3,6.9,26.2"/>
		<path class="st0" d="M5.4,29.2L7,28.6c0.3-0.1,0.6,0.3,0.5,0.6l-0.3,0.6c-0.3,0.5-0.7,0.9-1.3,1.1l-1.7,0.6
			c-0.3,0.1-0.6-0.3-0.5-0.6l0.3-0.6C4.4,29.8,4.8,29.4,5.4,29.2"/>
		<path class="st0" d="M4,32.4l1.6-0.7c0.3-0.1,0.6,0.2,0.5,0.5l-0.3,0.6c-0.2,0.5-0.7,0.9-1.2,1.2L3,34.7c-0.3,0.1-0.6-0.2-0.5-0.5
			l0.3-0.6C3.1,33,3.5,32.6,4,32.4"/>
		<path class="st0" d="M2.9,35.7l1.6-0.8C4.8,34.7,5.1,35,5,35.3L4.8,36c-0.2,0.5-0.6,1-1.1,1.2L2.1,38c-0.3,0.2-0.7-0.2-0.5-0.5
			l0.2-0.6C2,36.4,2.4,35.9,2.9,35.7"/>
		<path class="st0" d="M2,39L3.5,38c0.3-0.2,0.7,0.1,0.6,0.5l-0.2,0.7c-0.2,0.6-0.5,1-1,1.3l-1.5,0.9c-0.3,0.2-0.7-0.1-0.6-0.5
			L1,40.3C1.2,39.7,1.5,39.3,2,39"/>
		<path class="st0" d="M1.4,42.4l1.5-1.1c0.3-0.2,0.7,0.1,0.6,0.4l-0.2,0.7c-0.1,0.6-0.5,1.1-0.9,1.4l-1.4,1.1
			c-0.3,0.2-0.7-0.1-0.6-0.4l0.2-0.7C0.6,43.2,0.9,42.7,1.4,42.4"/>
		<path class="st0" d="M0.9,45.8l1.4-1.2c0.3-0.2,0.7,0,0.6,0.4l-0.1,0.7c-0.1,0.6-0.4,1.1-0.8,1.4l-1.4,1.1c-0.3,0.2-0.7,0-0.6-0.4
			l0.1-0.7C0.2,46.6,0.5,46.1,0.9,45.8"/>
		<path class="st0" d="M0.8,49.2l1.3-1.2c0.2-0.2,0.7,0,0.6,0.3L2.6,49c-0.1,0.6-0.3,1.1-0.7,1.5l-1.3,1.2c-0.2,0.2-0.7,0-0.6-0.3
			l0.1-0.7C0.1,50.1,0.4,49.6,0.8,49.2"/>
		<path class="st0" d="M0.8,52.6L2,51.3c0.2-0.3,0.7-0.1,0.7,0.3l0,0.7c0,0.6-0.2,1.1-0.6,1.5l-1.2,1.3c-0.2,0.3-0.7,0.1-0.7-0.3
			l0-0.7C0.2,53.6,0.5,53,0.8,52.6"/>
		<path class="st0" d="M1.1,56l1.1-1.4c0.2-0.3,0.7-0.1,0.7,0.2l0,0.7c0,0.6-0.1,1.1-0.5,1.6l-1.1,1.4c-0.2,0.3-0.7,0.1-0.7-0.2
			l0-0.7C0.6,57.1,0.8,56.5,1.1,56"/>
		<path class="st0" d="M1.7,59.4l1-1.5c0.2-0.3,0.7-0.2,0.7,0.2l0.1,0.7c0.1,0.6-0.1,1.1-0.4,1.6l-1,1.5c-0.2,0.3-0.7,0.2-0.7-0.2
			l-0.1-0.7C1.2,60.5,1.4,59.9,1.7,59.4"/>
		<path class="st0" d="M2.5,62.8l0.9-1.6C3.5,60.9,4,61,4.1,61.4l0.1,0.7c0.1,0.6,0,1.1-0.3,1.6L3,65.2c-0.2,0.3-0.7,0.2-0.7-0.2
			l-0.1-0.7C2.1,63.9,2.2,63.3,2.5,62.8"/>
		<path class="st0" d="M3.5,66.1l0.8-1.6c0.2-0.3,0.6-0.2,0.7,0.1l0.2,0.7c0.2,0.6,0.1,1.1-0.2,1.6l-0.8,1.6
			c-0.1,0.3-0.6,0.2-0.7-0.1l-0.2-0.7C3.2,67.2,3.2,66.6,3.5,66.1"/>
		<path class="st0" d="M4.7,69.3l0.7-1.7c0.1-0.3,0.6-0.3,0.7,0l0.2,0.6c0.2,0.5,0.2,1.1,0,1.7l-0.7,1.7c-0.1,0.3-0.6,0.3-0.7,0
			l-0.2-0.6C4.5,70.4,4.5,69.8,4.7,69.3"/>
		<path class="st0" d="M6.2,72.4l0.6-1.7c0.1-0.3,0.6-0.3,0.7,0l0.3,0.6C7.9,71.8,8,72.4,7.8,73l-0.6,1.7c-0.1,0.3-0.6,0.3-0.7,0
			L6.2,74C6,73.5,6,72.9,6.2,72.4"/>
		<path class="st0" d="M7.8,75.4l0.4-1.7c0.1-0.3,0.6-0.4,0.7-0.1l0.3,0.6c0.3,0.5,0.3,1.1,0.2,1.6l-0.4,1.7C9,77.9,8.5,78,8.3,77.6
			L8,77C7.8,76.5,7.7,75.9,7.8,75.4"/>
		<path class="st0" d="M9.7,78.3l0.3-1.8c0.1-0.3,0.5-0.4,0.7-0.1l0.4,0.6c0.3,0.5,0.4,1.1,0.3,1.6l-0.3,1.8
			c-0.1,0.3-0.5,0.4-0.7,0.1L10,79.9C9.7,79.4,9.6,78.8,9.7,78.3"/>
		<path class="st0" d="M11.8,81l0.2-1.8c0-0.3,0.5-0.4,0.7-0.2l0.4,0.6c0.3,0.5,0.5,1,0.4,1.6L13.3,83c0,0.3-0.5,0.4-0.7,0.2
			l-0.4-0.6C11.9,82.1,11.7,81.6,11.8,81"/>
		<path class="st0" d="M14,83.6l0.1-1.8c0-0.3,0.5-0.5,0.7-0.2l0.4,0.5c0.4,0.5,0.5,1,0.5,1.6l-0.1,1.8c0,0.3-0.5,0.5-0.7,0.2
			l-0.4-0.5C14.2,84.7,14,84.2,14,83.6"/>
		<path class="st0" d="M16.5,86l-0.1-1.8c0-0.3,0.4-0.5,0.7-0.3l0.5,0.5c0.4,0.4,0.6,1,0.6,1.5l0.1,1.8c0,0.3-0.4,0.5-0.7,0.3
			l-0.5-0.5C16.7,87.1,16.5,86.6,16.5,86"/>
		<path class="st0" d="M19.1,88.3l-0.2-1.8c0-0.3,0.4-0.5,0.7-0.3l0.5,0.5c0.4,0.4,0.7,0.9,0.7,1.5l0.2,1.8c0,0.3-0.4,0.5-0.7,0.3
			l-0.5-0.5C19.4,89.4,19.1,88.8,19.1,88.3"/>
		<path class="st0" d="M21.8,90.3l-0.3-1.8c-0.1-0.3,0.4-0.6,0.6-0.3l0.5,0.4c0.4,0.4,0.7,0.9,0.8,1.4l0.3,1.8
			c0.1,0.3-0.4,0.6-0.6,0.3l-0.5-0.4C22.2,91.4,21.9,90.9,21.8,90.3"/>
		<path class="st0" d="M24.7,92.2l-0.4-1.7c-0.1-0.3,0.3-0.6,0.6-0.4l0.6,0.4c0.5,0.3,0.8,0.8,0.9,1.4l0.4,1.7
			c0.1,0.3-0.3,0.6-0.6,0.4l-0.6-0.4C25.2,93.2,24.8,92.8,24.7,92.2"/>
		<path class="st0" d="M27.7,93.9l-0.6-1.7c-0.1-0.3,0.3-0.6,0.6-0.4l0.6,0.4c0.5,0.3,0.9,0.8,1,1.3l0.6,1.7
			c0.1,0.3-0.3,0.6-0.6,0.4l-0.6-0.4C28.2,94.9,27.9,94.4,27.7,93.9"/>
		<path class="st0" d="M30.8,95.3l-0.7-1.7c-0.1-0.3,0.2-0.6,0.6-0.5l0.6,0.3c0.5,0.3,0.9,0.7,1.1,1.2l0.7,1.7
			c0.1,0.3-0.2,0.6-0.6,0.5l-0.6-0.3C31.4,96.3,31,95.8,30.8,95.3"/>
		<path class="st0" d="M34,96.6l-0.8-1.6c-0.2-0.3,0.2-0.6,0.5-0.5l0.6,0.3c0.5,0.2,1,0.6,1.2,1.1l0.8,1.6c0.1,0.3-0.2,0.6-0.5,0.5
			l-0.6-0.3C34.7,97.5,34.3,97.1,34,96.6"/>
		<path class="st0" d="M37.3,97.6L36.4,96c-0.2-0.3,0.2-0.7,0.5-0.5l0.6,0.2c0.5,0.2,1,0.6,1.3,1l0.9,1.5c0.2,0.3-0.2,0.7-0.5,0.5
			l-0.6-0.2C38,98.4,37.6,98,37.3,97.6"/>
		<path class="st0" d="M40.7,98.3l-1-1.5c-0.2-0.3,0.1-0.7,0.5-0.6l0.7,0.2c0.6,0.2,1,0.5,1.4,1l1,1.5c0.2,0.3-0.1,0.7-0.4,0.6
			L42,99.3C41.4,99.1,41,98.8,40.7,98.3"/>
		<path class="st0" d="M44.1,98.9L43,97.5c-0.2-0.3,0.1-0.7,0.4-0.6L44,97c0.6,0.1,1.1,0.4,1.4,0.9l1.1,1.4c0.2,0.3-0.1,0.7-0.4,0.6
			l-0.7-0.1C44.9,99.6,44.4,99.3,44.1,98.9"/>
		<path class="st0" d="M47.5,99.2l-1.2-1.3c-0.2-0.3,0-0.7,0.4-0.6l0.7,0.1c0.6,0.1,1.1,0.3,1.5,0.8l1.2,1.3c0.2,0.3,0,0.7-0.4,0.6
			l-0.7-0.1C48.4,99.8,47.9,99.6,47.5,99.2"/>
		<path class="st0" d="M50.9,99.2L49.6,98c-0.2-0.2,0-0.7,0.3-0.7l0.7,0c0.6,0,1.1,0.3,1.5,0.6l1.3,1.2c0.2,0.2,0,0.7-0.3,0.7
			l-0.7,0C51.9,99.8,51.3,99.6,50.9,99.2"/>
		<path class="st0" d="M54.3,99L53,97.9c-0.3-0.2-0.1-0.7,0.3-0.7l0.7,0c0.6,0,1.1,0.2,1.6,0.5l1.4,1.1c0.3,0.2,0.1,0.7-0.3,0.7
			l-0.7,0C55.3,99.6,54.8,99.4,54.3,99"/>
		<path class="st0" d="M57.8,98.6l-1.5-1.1c-0.3-0.2-0.1-0.7,0.2-0.7l0.7-0.1c0.6-0.1,1.1,0.1,1.6,0.4l1.5,1.1
			c0.3,0.2,0.1,0.7-0.2,0.7L59.4,99C58.8,99.1,58.2,98.9,57.8,98.6"/>
		<path class="st0" d="M61.1,97.9l-1.5-1c-0.3-0.2-0.2-0.7,0.2-0.7l0.7-0.1c0.6-0.1,1.1,0,1.6,0.3l1.5,0.9c0.3,0.2,0.2,0.7-0.2,0.7
			l-0.7,0.1C62.2,98.4,61.6,98.2,61.1,97.9"/>
		<path class="st0" d="M64.4,97.1l-1.6-0.8c-0.3-0.2-0.2-0.6,0.1-0.7l0.7-0.2c0.6-0.1,1.1-0.1,1.6,0.2l1.6,0.8
			c0.3,0.2,0.2,0.6-0.1,0.7l-0.7,0.2C65.5,97.4,64.9,97.3,64.4,97.1"/>
		<path class="st0" d="M67.7,95.9l-1.6-0.7c-0.3-0.1-0.3-0.6,0.1-0.7l0.7-0.2c0.6-0.2,1.1-0.1,1.7,0.1l1.6,0.7
			c0.3,0.1,0.3,0.6-0.1,0.7L69.3,96C68.8,96.2,68.2,96.2,67.7,95.9"/>
		<path class="st0" d="M70.9,94.6L69.2,94c-0.3-0.1-0.3-0.6,0-0.7l0.6-0.2c0.5-0.2,1.1-0.2,1.7,0l1.7,0.6c0.3,0.1,0.3,0.6,0,0.7
			l-0.6,0.2C72,94.8,71.4,94.8,70.9,94.6"/>
		<path class="st0" d="M73.9,93l-1.7-0.5c-0.3-0.1-0.3-0.6,0-0.7l0.6-0.3c0.5-0.2,1.1-0.3,1.6-0.1l1.7,0.5c0.3,0.1,0.3,0.6,0,0.7
			l-0.6,0.3C75,93.1,74.5,93.2,73.9,93"/>
		<path class="st0" d="M76.9,91.3l-1.8-0.4c-0.3-0.1-0.4-0.6-0.1-0.7l0.6-0.3c0.5-0.3,1.1-0.4,1.6-0.2l1.8,0.4
			c0.3,0.1,0.4,0.6,0.1,0.7L78.5,91C78,91.3,77.4,91.4,76.9,91.3"/>
		<path class="st0" d="M79.7,89.3L77.9,89c-0.3,0-0.4-0.5-0.1-0.7l0.6-0.4c0.5-0.3,1.1-0.4,1.6-0.4l1.8,0.3c0.3,0,0.4,0.5,0.1,0.7
			l-0.6,0.4C80.8,89.2,80.2,89.4,79.7,89.3"/>
		<path class="st0" d="M82.3,87.1L80.6,87c-0.3,0-0.5-0.5-0.2-0.7l0.5-0.4c0.5-0.3,1-0.5,1.6-0.5l1.8,0.1c0.3,0,0.5,0.5,0.2,0.7
			l-0.5,0.4C83.5,87,82.9,87.2,82.3,87.1"/>
		<polygon class="st0" points="45.8,10.5 48.4,8.7 47.4,5.6 50,7.5 52.6,5.6 51.6,8.6 54.2,10.5 51,10.5 50,13.6 49,10.5 		"/>
		<polygon class="st0" points="31,15.2 32.7,12.4 30.6,10 33.7,10.7 35.4,8 35.6,11.2 38.8,11.9 35.8,13.1 36.1,16.4 34,13.9 		"/>
		<polygon class="st0" points="19.1,25.1 19.6,21.9 16.7,20.4 19.9,20 20.4,16.7 21.9,19.6 25.1,19.1 22.8,21.4 24.3,24.3 
			21.4,22.8 		"/>
		<polygon class="st0" points="11.9,38.8 11.2,35.7 8,35.4 10.7,33.8 9.9,30.6 12.4,32.7 15.2,31 13.9,34 16.4,36.1 13.2,35.8 		"/>
		<polygon class="st0" points="10.5,54.2 8.7,51.6 5.6,52.6 7.5,50 5.6,47.4 8.6,48.4 10.5,45.8 10.5,49 13.6,50 10.5,51 		"/>
		<polygon class="st0" points="15.2,69 12.4,67.3 10,69.4 10.7,66.3 8,64.6 11.2,64.4 11.9,61.2 13.1,64.2 16.4,63.9 13.9,66 		"/>
		<polygon class="st0" points="25.1,80.9 21.9,80.4 20.4,83.3 20,80.1 16.7,79.6 19.6,78.1 19.1,74.9 21.4,77.2 24.3,75.7 
			22.8,78.6 		"/>
		<polygon class="st0" points="38.8,88.1 35.7,88.8 35.4,92 33.8,89.3 30.6,90.1 32.7,87.6 31,84.8 34,86.1 36.1,83.6 35.8,86.8 		
			"/>
		<polygon class="st0" points="54.2,89.5 51.6,91.3 52.6,94.4 50,92.5 47.4,94.4 48.4,91.4 45.8,89.5 49,89.5 50,86.4 51,89.5 		"/>
		<polygon class="st0" points="69,84.8 67.3,87.6 69.4,90 66.3,89.3 64.6,92 64.4,88.8 61.2,88.1 64.2,86.9 63.9,83.6 66,86.1 		"/>
		<polygon class="st0" points="80.9,74.9 80.4,78.1 83.3,79.6 80.1,80 79.6,83.3 78.1,80.4 74.9,80.9 77.2,78.6 75.7,75.7 
			78.6,77.2 		"/>
		<polygon class="st0" points="88.1,61.2 88.8,64.3 92,64.6 89.3,66.3 90.1,69.4 87.6,67.3 84.8,69 86.1,66 83.6,63.9 86.8,64.2 		
			"/>
		<polygon class="st0" points="89.5,45.8 91.3,48.4 94.4,47.4 92.5,50 94.4,52.6 91.4,51.6 89.5,54.2 89.5,51 86.4,50 89.5,49 		"/>
		<polygon class="st0" points="84.8,31 87.6,32.7 90,30.6 89.3,33.7 92,35.4 88.8,35.6 88.1,38.8 86.9,35.8 83.6,36.1 86.1,34 		"/>
		<polygon class="st0" points="74.9,19.1 78.1,19.6 79.6,16.7 80,19.9 83.3,20.4 80.4,21.9 80.9,25.1 78.6,22.8 75.7,24.3 
			77.2,21.4 		"/>
		<polygon class="st0" points="61.2,11.9 64.3,11.2 64.6,8 66.3,10.7 69.4,9.9 67.3,12.4 69,15.2 66,13.9 63.9,16.4 64.2,13.2 		"/>
		<path class="st0" d="M50,25.3c-13.6,0-24.7,11.1-24.7,24.7c0,13.6,11.1,24.7,24.7,24.7c13.6,0,24.7-11.1,24.7-24.7
			C74.7,36.4,63.6,25.3,50,25.3 M50,75.5C36,75.5,24.5,64,24.5,50C24.5,36,36,24.5,50,24.5C64,24.5,75.5,36,75.5,50
			C75.5,64,64,75.5,50,75.5"/>
		<path class="st0" d="M50,16.5c-18.5,0-33.5,15-33.5,33.5c0,18.5,15,33.5,33.5,33.5s33.5-15,33.5-33.5C83.5,31.5,68.5,16.5,50,16.5
			 M50,84.3c-18.9,0-34.3-15.4-34.3-34.3c0-18.9,15.4-34.3,34.3-34.3c18.9,0,34.3,15.4,34.3,34.3C84.3,68.9,68.9,84.3,50,84.3"/>
		<polygon class="st0" points="41.6,79.2 42.6,79.5 42.4,80.3 39.4,79.3 39.6,78.6 40.7,78.9 41.7,75.7 42.6,76 		"/>
		<path class="st0" d="M36.9,79c-0.1,0.2-0.4,0.3-0.6,0.2c-0.2-0.1-0.3-0.3-0.2-0.6c0.1-0.2,0.3-0.3,0.6-0.2
			C36.9,78.6,37,78.8,36.9,79 M35.7,78.5c-0.1,0.2-0.3,0.3-0.6,0.2c-0.2-0.1-0.3-0.3-0.2-0.6c0.1-0.2,0.3-0.3,0.6-0.2
			C35.8,78,35.8,78.3,35.7,78.5 M36.9,78.3l1.1-2.1c0.3-0.6,0.2-1.1-0.2-1.3c-0.4-0.2-0.8,0-1.2,0.6l-1.1,2.1l-0.8-0.4l1-2.1
			c0.6-1.2,1.4-1.4,2.4-0.9c0.9,0.5,1.2,1.3,0.7,2.4l-1,2.1L36.9,78.3z"/>
		<path class="st0" d="M33.3,74.1L33,73.9c-0.4-0.3-0.7-0.2-1,0c-0.2,0.3-0.1,0.6,0.2,0.9c0.2,0.1,0.3,0.2,0.4,0.2L33.3,74.1z
			 M33,76.1c-0.3-0.1-0.7-0.4-1.1-0.7c-0.5-0.4-0.8-0.7-0.9-1.1c-0.1-0.3,0-0.6,0.2-0.9c0.3-0.4,0.8-0.5,1.2-0.4l0,0
			c-0.2-0.3-0.1-0.6,0-1c0.2-0.5,0.4-1,0.4-1.2l0.8,0.6c0,0.1-0.1,0.5-0.3,1c-0.2,0.5-0.2,0.7,0.2,0.9l0.2,0.2l1-1.3l0.8,0.5
			L33,76.1z"/>
		<path class="st0" d="M29.1,73.1l-0.7-0.7l1.3-1.3l0,0c-0.2,0-0.4,0.1-0.5,0.1l-1.6,0.3l-0.8-0.8l2.2-0.3l0.7-2.7l0.8,0.8l-0.5,2
			l0.6-0.1l1-1l0.7,0.7L29.1,73.1z"/>
		<path class="st0" d="M25.1,68.8l3.3-2.6L29,67l-3.3,2.6L25.1,68.8z M25.1,69.9c-0.2,0.1-0.5,0.1-0.6-0.1c-0.1-0.2-0.1-0.4,0.1-0.6
			c0.2-0.1,0.4-0.1,0.6,0.1C25.4,69.5,25.3,69.8,25.1,69.9"/>
		<path class="st0" d="M27.1,64.3l-1.5,0.9l-1.4,2.4l-0.6-0.9l0.6-0.9c0.2-0.3,0.3-0.5,0.5-0.7l0,0c-0.3,0.1-0.5,0.1-0.8,0.1
			l-1.1,0.2l-0.5-0.9l2.8-0.1l1.5-0.9L27.1,64.3z"/>
		<polygon class="st0" points="22.9,59.8 23.5,61.2 24.4,60.8 23.7,59.2 24.4,58.9 25.5,61.4 21.6,63 20.6,60.6 21.3,60.3 22,61.8 
			22.8,61.5 22.2,60 		"/>
		<path class="st0" d="M23,53.1c0.1,0.2,0.3,0.5,0.4,1c0.2,1.4-0.5,2.3-1.7,2.5c-1.4,0.2-2.4-0.6-2.6-1.9c-0.1-0.5-0.1-0.9,0-1
			l0.8,0.1c0,0.2-0.1,0.5,0,0.8c0.1,0.7,0.7,1.2,1.6,1.1c0.8-0.1,1.3-0.7,1.1-1.5c0-0.3-0.2-0.6-0.3-0.7L23,53.1z"/>
		<path class="st0" d="M18.8,51.1l2.4,0c0.7,0,1.1-0.3,1.1-0.8c0-0.5-0.4-0.8-1.1-0.8l-2.4,0l0-0.9l2.3,0c1.3,0,1.9,0.6,1.9,1.7
			c0,1-0.6,1.7-1.9,1.7l-2.3,0L18.8,51.1z"/>
		<path class="st0" d="M22.1,43.5c-0.5-0.1-1.1-0.2-1.7-0.3l0,0c0.5,0.2,1.1,0.5,1.5,0.7l1.5,0.8l-0.1,0.7l-1.7,0.2
			c-0.5,0-1.1,0.1-1.7,0.1l0,0c0.5,0.1,1.2,0.3,1.7,0.4l1.5,0.4L23,47.4l-4-1l0.2-1.2l1.4-0.2c0.5,0,1-0.1,1.5-0.1l0,0
			c-0.5-0.2-1-0.4-1.4-0.7l-1.3-0.7l0.2-1.2l4.1,0.5l-0.2,0.9L22.1,43.5z"/>
		<polygon class="st0" points="20.7,39.2 22.2,39.8 22.7,38.4 21.3,37.8 21.6,36.9 25.5,38.4 25.1,39.3 23.5,38.7 22.9,40.1 
			24.6,40.8 24.2,41.6 20.3,40.1 		"/>
		<path class="st0" d="M23,34.2l2,1.3c0.6,0.4,1.1,0.3,1.3-0.1c0.3-0.4,0.1-0.8-0.5-1.2l-2-1.3l0.5-0.8l2,1.2
			c1.1,0.7,1.3,1.5,0.7,2.5c-0.6,0.9-1.4,1.1-2.5,0.4l-2-1.2L23,34.2z"/>
		<path class="st0" d="M27.6,31l0.2-0.3c0.3-0.4,0.3-0.7,0-1c-0.3-0.3-0.6-0.2-0.9,0.1c-0.1,0.2-0.2,0.3-0.3,0.3L27.6,31z
			 M25.6,30.5c0.2-0.3,0.4-0.6,0.8-1c0.4-0.5,0.8-0.7,1.1-0.8c0.3-0.1,0.6,0,0.9,0.3c0.4,0.3,0.4,0.9,0.3,1.2l0,0
			c0.3-0.1,0.6-0.1,1,0.1c0.4,0.2,0.9,0.5,1.1,0.5l-0.6,0.7c-0.1,0-0.5-0.2-0.9-0.4c-0.5-0.3-0.7-0.2-0.9,0.1l-0.2,0.2l1.2,1.1
			l-0.6,0.7L25.6,30.5z"/>
		<path class="st0" d="M29.6,26.3l2.8,3.1l-0.7,0.6L28.9,27L29.6,26.3z M28.5,26.4c-0.2-0.2-0.1-0.4,0-0.6c0.2-0.2,0.4-0.1,0.6,0
			c0.1,0.2,0.1,0.4,0,0.6C28.9,26.6,28.6,26.6,28.5,26.4"/>
		<path class="st0" d="M34.2,28l-1-1.4l-2.5-1.3l0.9-0.6l0.9,0.6c0.3,0.2,0.5,0.3,0.7,0.5l0,0c-0.1-0.3-0.1-0.5-0.2-0.8l-0.2-1.1
			l0.9-0.6L34,26l1,1.4L34.2,28z"/>
		<polygon class="st0" points="38.5,23.5 37.1,24.2 37.5,25.1 39.1,24.3 39.4,25 37,26.2 35.2,22.5 37.5,21.3 37.8,22 36.4,22.7 
			36.8,23.5 38.1,22.8 		"/>
		<polygon class="st0" points="40.3,21.1 39.2,21.5 39,20.7 42,19.7 42.3,20.5 41.2,20.8 42.2,24 41.3,24.3 		"/>
		<path class="st0" d="M44.5,19.2l0.8,4.1l-0.9,0.2l-0.8-4.1L44.5,19.2z M43.5,18.7c0-0.2,0.1-0.5,0.3-0.5c0.2,0,0.4,0.1,0.5,0.3
			c0,0.2-0.1,0.4-0.3,0.5C43.7,19.1,43.5,19,43.5,18.7"/>
		<path class="st0" d="M51.9,21.3c0-0.5,0-1.1,0-1.7h0c-0.1,0.5-0.3,1.1-0.5,1.6l-0.5,1.6l-0.7,0l-0.4-1.6c-0.1-0.5-0.3-1.1-0.3-1.6
			l0,0c0,0.6-0.1,1.2-0.1,1.7l-0.1,1.6l-0.9,0l0.3-4.2l1.3,0l0.4,1.4c0.1,0.5,0.2,1,0.3,1.5l0,0c0.1-0.5,0.3-1,0.4-1.5l0.5-1.4
			l1.2,0l0.2,4.2l-0.9,0L51.9,21.3z"/>
		<path class="st0" d="M55,18.4c0-0.2,0.3-0.4,0.5-0.3c0.2,0,0.4,0.3,0.3,0.5c0,0.2-0.2,0.4-0.5,0.3C55.1,18.9,54.9,18.7,55,18.4
			 M55.8,19.2l-0.7,4.1l-0.9-0.2l0.7-4.1L55.8,19.2z"/>
		<polygon class="st0" points="57.6,19.6 58.5,19.9 57.6,23.1 59.2,23.6 59,24.4 56.5,23.6 		"/>
		<polygon class="st0" points="61.7,21 62.5,21.3 61.2,24.4 62.7,25.1 62.4,25.8 60,24.8 		"/>
		<path class="st0" d="M66.6,22.4l0.2,1L66.2,23l-0.1-0.5l0,0l-0.5,0.2l-0.6-0.3L66,22L66.6,22.4z M66.3,23.3l-2.1,3.6l-0.8-0.5
			l2.1-3.6L66.3,23.3z"/>
		<polygon class="st0" points="69.9,29.1 68.8,28.1 68.1,28.8 69.4,29.9 68.9,30.5 66.9,28.8 69.6,25.6 71.6,27.3 71.1,27.9 
			69.8,26.8 69.3,27.5 70.4,28.5 		"/>
		<path class="st0" d="M74.7,29.2c-0.1,0.1-0.1,0.3,0,0.5c0.2,0.2,0.3,0.2,0.5,0.1l0.3,0.4c-0.4,0.3-0.8,0.3-1.2-0.2
			c-0.4-0.5-0.3-0.9,0-1.2L74.7,29.2z M72.1,33.9c-0.3-0.2-0.7-0.5-1.1-0.9c-0.5-0.6-0.7-1.1-0.7-1.7c0-0.5,0.3-1,0.8-1.4
			c1.1-0.9,2.3-0.6,3.2,0.4c0.3,0.4,0.5,0.8,0.6,1l-0.7,0.3c-0.1-0.2-0.2-0.5-0.5-0.9c-0.5-0.6-1.2-0.8-1.9-0.2
			c-0.7,0.5-0.7,1.3-0.2,1.9c0.1,0.2,0.3,0.3,0.3,0.3l0.7-0.6l-0.4-0.5l0.6-0.5l1,1.2L72.1,33.9z"/>
		<path class="st0" d="M76.8,32.6c0.2-0.1,0.5-0.1,0.6,0.1c0.1,0.2,0.1,0.4-0.1,0.6c-0.2,0.1-0.4,0.1-0.6-0.1
			C76.5,33,76.6,32.7,76.8,32.6 M76.7,33.7l-3.5,2.2l-0.5-0.8l3.5-2.2L76.7,33.7z"/>
		<polygon class="st0" points="77.3,36.4 76.8,35.4 77.5,35 78.9,37.9 78.2,38.2 77.7,37.2 74.6,38.7 74.2,37.8 		"/>
		<path class="st0" d="M80.1,39.2c0.2-0.1,0.5,0,0.5,0.3c0.1,0.2,0,0.5-0.3,0.5c-0.2,0.1-0.5,0-0.5-0.3
			C79.7,39.5,79.9,39.3,80.1,39.2 M79.7,40.3l-3.9,1.3l-0.3-0.9l3.9-1.3L79.7,40.3z"/>
		<path class="st0" d="M78.5,46.1c0.5-0.1,1.1-0.2,1.7-0.3l0,0c-0.5,0-1.2-0.1-1.7-0.2l-1.7-0.2l-0.1-0.7l1.5-0.7
			c0.5-0.2,1-0.5,1.5-0.7l0,0c-0.6,0.1-1.2,0.2-1.7,0.2l-1.6,0.2l-0.2-0.9l4.1-0.5l0.2,1.2l-1.3,0.6c-0.5,0.2-0.9,0.4-1.4,0.6l0,0
			c0.5,0,1.1,0.1,1.5,0.1l1.4,0.2l0.2,1.2l-4.1,1l-0.2-0.9L78.5,46.1z"/>
		<path class="st0" d="M79.6,51.4l0,0.3c0,0.5,0.2,0.8,0.5,0.8c0.3,0,0.5-0.2,0.5-0.6c0-0.2,0-0.3,0-0.4L79.6,51.4z M77.7,51.3
			c0,0.1,0,0.2,0,0.4c0,0.4,0.1,0.8,0.5,0.8c0.4,0,0.6-0.3,0.6-0.8l0-0.3L77.7,51.3z M81.2,50.6c0,0.2,0,0.8,0,1.2
			c0,0.6-0.1,0.9-0.3,1.2c-0.2,0.3-0.5,0.5-0.8,0.4c-0.4,0-0.7-0.3-0.8-0.7l0,0c-0.2,0.5-0.5,0.8-1.1,0.8c-0.4,0-0.7-0.2-0.9-0.5
			c-0.2-0.3-0.3-0.8-0.3-1.7c0-0.5,0.1-0.8,0.1-1L81.2,50.6z"/>
		<path class="st0" d="M78,56.9l0.9-0.1c0.3,0,0.6,0,0.8,0l0,0c-0.2-0.1-0.5-0.2-0.7-0.4L78.2,56L78,56.9z M77.6,55.7l-1-0.5
			l0.2-0.9l3.8,2.2l-0.3,1.2L76,57.9l0.2-1l1.1-0.1L77.6,55.7z"/>
		<path class="st0" d="M79.5,60.5l-0.4,0.9l-1.7-0.7l0,0c0.1,0.1,0.2,0.3,0.3,0.4l0.9,1.4l-0.4,1.1l-1.1-2l-2.8,0.4l0.4-1l2-0.3
			l-0.3-0.5l-1.3-0.5l0.4-0.9L79.5,60.5z"/>
		<path class="st0" d="M74.2,65.7l0.9,0.3c0.2,0.1,0.5,0.2,0.8,0.3l0,0c-0.2-0.2-0.4-0.4-0.6-0.6l-0.6-0.7L74.2,65.7z M74.2,64.4
			l-0.7-0.8l0.5-0.8l2.8,3.3l-0.7,1L71.9,66l0.5-0.9l1.1,0.3L74.2,64.4z"/>
		<path class="st0" d="M71.2,66.8l3.1,2.8l-0.7,0.8l-1.7-0.4c-0.5-0.1-1-0.3-1.5-0.5l0,0c0.4,0.3,0.9,0.7,1.3,1.1l0.9,0.8L72,72.2
			l-3.1-2.8l0.7-0.7l1.8,0.4c0.5,0.1,1.1,0.3,1.6,0.5l0,0c-0.4-0.4-0.9-0.7-1.4-1.2l-0.9-0.8L71.2,66.8z"/>
		<polygon class="st0" points="70.5,73.6 69.8,74.2 67.6,71.5 66.4,72.6 65.9,72 67.9,70.3 		"/>
		
			<rect x="65.2" y="72.5" transform="matrix(0.8443 -0.5359 0.5359 0.8443 -29.7421 46.7837)" class="st0" width="0.9" height="4.2"/>
		<path class="st0" d="M63.7,79.2c-0.1-0.1-0.2-0.2-0.4-0.1C63,79.2,63,79.4,63,79.5l-0.4,0.2c-0.2-0.4-0.1-0.8,0.5-1.1
			c0.6-0.3,0.9-0.1,1.1,0.3L63.7,79.2z M59.9,75.5c0.2-0.2,0.7-0.6,1.2-0.8c0.7-0.3,1.3-0.4,1.8-0.2c0.5,0.2,0.9,0.6,1.2,1.1
			c0.6,1.3,0,2.4-1.2,3c-0.5,0.2-0.9,0.3-1.1,0.3l-0.1-0.8c0.2,0,0.5-0.1,1-0.2c0.7-0.3,1.1-1,0.7-1.8c-0.4-0.8-1.1-1-1.8-0.7
			c-0.2,0.1-0.3,0.2-0.4,0.3l0.4,0.8l0.6-0.3l0.3,0.7l-1.4,0.6L59.9,75.5z"/>
		<rect x="58.2" y="75.7" transform="matrix(0.9558 -0.294 0.294 0.9558 -20.2828 20.6699)" class="st0" width="0.9" height="4.2"/>
		<path class="st0" d="M50,78.3c-0.7,0-1.2,0.5-1.2,1.2c0,0.7,0.5,1.2,1.2,1.2c0.7,0,1.2-0.5,1.2-1.2C51.2,78.8,50.7,78.3,50,78.3"
			/>
		<path class="st1" d="M49.7,37h-1.2c0-0.8,0.4-1.3,0.7-1.8c0.1-0.1,0.2-0.3,0.3-0.4c0.1-0.1,0.2-0.3,0.3-0.5
			c0.2-0.3,0.3-0.8,0.3-1.2c0-0.7-0.2-1.3-0.6-1.7c-1.3-1.6-0.8-3.1,0.6-3.4c-0.7,0.7-0.7,1.5,0.2,2.4c0-0.4,0.3-0.7,0.7-0.7
			c-0.4,0.4-0.2,0.8,0.2,1.4c0.1,0.1,0.2,0.2,0.3,0.4c0.7,0.7,1,1.3,0.9,2.3C52.1,35.3,50,35.8,49.7,37 M52.6,32.8
			c0.7,0.7,1.2,1.7,1.1,2.8c0,0.5-0.2,1-0.4,1.5H52c0.5-0.6,1.1-1,0.9-1.8c-0.2,1-0.8,1.2-1.2,1.8h-1.6c0.1-0.2,0.2-0.4,0.4-0.5
			c0.1-0.1,0.2-0.2,0.4-0.3c0.1-0.1,0.3-0.2,0.4-0.4c0.6-0.5,1.3-1.1,1.4-2.1C52.7,33.4,52.7,33,52.6,32.8 M46.5,37
			c-0.2-0.5-0.3-1-0.3-1.5c0-1.1,0.5-2,1.3-2.7c0.8-0.7,1-1.3,0.5-1.8c1.1,0.3,1.6,1,1.6,2.1c-0.1,1.8-1.5,2.1-1.6,4H46.5z
			 M47.2,35.7c0.1-1.3,1.7-1.7,1.5-3C48.5,34.2,47.3,33.9,47.2,35.7"/>
		<path class="st2" d="M51.2,55.1c-0.2,0.4-0.6,0.7-1,0.9c-0.4,0.2-0.7,0.3-1.2,0.3c0,0-0.1,0-0.1,0c-0.7,0-1.3-0.3-1.8-0.7
			c-0.6-0.5-0.9-1.2-0.9-2c0-0.5,0.1-1,0.4-1.4c0.3-0.4,0.7-0.8,1.2-1c0.1,0,0.2-0.1,0.3-0.1C48.4,51,48.7,51,49,51
			c1,0,1.8,0.5,2.3,1.3c-0.4-0.4-1-0.7-1.6-0.7c-0.3,0-0.6,0.1-0.9,0.2c-0.1,0-0.2,0.1-0.3,0.2c-0.4,0.3-0.8,0.7-0.9,1.3
			c0,0.2-0.1,0.4-0.1,0.5c0,0.5,0.2,0.9,0.4,1.3c0.4,0.5,1,0.9,1.7,0.9h0c0.1,0,0.3,0,0.4,0C50.5,55.7,50.9,55.5,51.2,55.1"/>
		<polygon class="st2" points="53.1,53.9 53.5,54.5 52.6,54.2 52,55 52,54 51.1,53.7 52,53.4 52,52.4 52.3,52.7 52.6,53.2 
			53.5,52.9 53,53.7 		"/>
		<path class="st2" d="M49.9,58.9c-2.9,0-5.3-2.4-5.3-5.3s2.4-5.3,5.3-5.3c2.9,0,5.3,2.4,5.3,5.3S52.8,58.9,49.9,58.9 M49.9,47.6
			c-3.3,0-6,2.7-6,6c0,3.3,2.7,6,6,6c3.3,0,6-2.7,6-6C55.8,50.3,53.2,47.6,49.9,47.6"/>
		<path class="st3" d="M51,44.9h-0.6h-0.8h-0.6c-0.1-0.1-0.2-0.1-0.2-0.2c0-0.1-0.1-0.2-0.2-0.4l0,0H49h2.1h0.3l0,0
			c-0.1,0.1-0.2,0.2-0.2,0.3C51.2,44.7,51.1,44.8,51,44.9 M45.9,41.6c-0.2-0.3-0.3-0.6-0.4-1c0-0.2-0.1-0.4-0.1-0.6h9.1
			c0,0.2,0,0.4-0.1,0.6c-0.1,0.3-0.2,0.7-0.4,1c-0.5,1-1.5,1.7-2.7,2.1h-0.2h-1h-0.5l-1,0l-0.2,0C47.4,43.3,46.4,42.6,45.9,41.6
			 M46.2,38.3h7.6V39h-7.6V38.3z M68.2,51.4l-0.8-0.7l0.8,10.5c-2.7,0.2-4.2,0.4-6.9,0c-1.2-0.2-2.4-0.4-3.6-0.5
			c-3.6-0.4-4.2-0.1-6.5,1.5l0-0.9c2.3-1.6,3.1-1.7,6.5-1.3c2.6,0.3,5.1,1,7.7,0.7l2.1-0.2l-0.8-10.7l-0.7-0.7l0.8,10.8
			c-2,0.2-3.3,0.2-5.3-0.1c-1.2-0.2-2.5-0.4-3.7-0.5c-3.3-0.3-4.3-0.3-6.6,1.2l0-0.8c2.3-1.4,3.6-1.4,6.7-1c1.2,0.1,2.5,0.4,3.7,0.5
			c1.5,0.2,2.9,0.3,4.4,0.1l-0.8-10.9l-0.1-0.1l-0.7-0.7l0,0l0,0v0c-0.6,0-1.1-0.1-1.7-0.2c-2-0.3-5.3-0.7-7.2-0.7
			c-1.3,0-2.7,0.2-4.1,0.8l0-1.7c0,0,0,0,0,0v-0.5c0.2-0.1,0.3-0.2,0.3-0.3c0.1-0.3,0.3-0.5,0.4-0.4v-0.3c1.6-0.6,2.6-1.6,3-3.1
			l0.2-0.8c0-0.2,0.1-0.5,0.1-0.8l-0.7-0.7v-1.2h-9.2v1.2l-0.7,0.7c0,0.3,0,0.5,0,0.7l0.2,0.9c0.4,1.4,1.5,2.6,3,3.1v0.3
			c0.3,0,0.4,0.2,0.4,0.4c0.1,0.2,0.2,0.3,0.4,0.4l0,0.5l0,1.8c-1.4-0.6-2.8-0.9-4.2-0.9c-1.8,0-5.1,0.4-7.1,0.7
			c-0.6,0.1-1.2,0.2-1.8,0.2c0.8,0,1.5-0.1,2.2-0.1c1.2-0.1,3.9-0.2,5.2-0.3c1.6-0.1,3.3,0.1,4.9,0.9c0.5-0.2,1.1-0.3,1.7-0.3l0-2.5
			h0.7l0,2.6c0.5,0.1,1,0.2,1.5,0.4c1.6-0.8,3.3-1.1,5-1c1.2,0.1,4,0.2,5.2,0.3c0.7,0.1,1.5,0.1,2.2,0.1v0l0,0.2l0.8,10.8l-0.5,0
			c-0.8,0-1.8-0.1-2.9-0.2c-1.9-0.3-3.8-0.6-5.7-0.7c-0.2,0-0.4,0-0.6,0c-0.6,0-1.1,0.1-1.7,0.2c-0.9,0.8-2,1.3-3.2,1.4l0,0.1l0,6.3
			c0,0.2-0.2,0.5-0.5,0.5s-0.5-0.2-0.5-0.5l0-3.8c0,0,0,0,0,0l0,0l0-2.4l0-0.1c-1.4-0.1-2.6-0.6-3.6-1.5c-0.5-0.1-0.9-0.1-1.4-0.1
			c-0.2,0-0.4,0-0.6,0c-1.9,0-3.8,0.4-5.7,0.7c-1.1,0.2-2.1,0.3-2.9,0.2l-0.5,0l0.8-10.8l0-0.2l0,0l0,0l0,0l-0.7,0.7l-0.1,0.1
			L34,59.3c1.5,0.1,2.9,0.1,4.4-0.1c1.2-0.2,2.5-0.4,3.7-0.5c3.1-0.3,4.5-0.2,6.8,1.2l0,0.8c-2.3-1.6-3.4-1.7-6.7-1.3
			c-1.2,0.1-2.5,0.4-3.7,0.5c-2,0.3-3.3,0.2-5.3,0.1l0.8-10.8l-0.7,0.7l-0.8,10.7l2.1,0.2c2.6,0.2,5.1-0.5,7.7-0.7
			c3.5-0.4,4.3-0.1,6.7,1.5l0,0.8c-2.4-1.7-2.9-2-6.6-1.7c-1.2,0.1-2.4,0.4-3.6,0.5c-2.7,0.4-4.2,0.2-6.9,0l0.8-10.5l-0.8,0.7
			l-0.8,10.4c3.1,0.3,4.8,0.5,7.8,0.1c1.2-0.2,2.4-0.4,3.6-0.5c2.8-0.3,3.7-0.2,5.5,1.1l1,0.7l0,1.1c0,0,0,0,0,0v1.5
			c0,0.6,0.5,1.1,1.1,1.1h0c0.6,0,1.1-0.5,1.1-1.1v-1.1l0-1.6l0.9-0.6c1.8-1.3,2.7-1.4,5.5-1.1c1.2,0.1,2.4,0.4,3.6,0.5
			c3,0.4,4.7,0.2,7.8-0.1L68.2,51.4z"/>
	</g>
	<polygon points="143,77.6 147.6,77.6 147.6,51.7 169.9,13.9 160.1,13.9 143,43.4 125.4,13.9 115.3,13.9 138.3,51.7 138.3,77.6 	"/>
	<path d="M193.8,29.6v33.8c0,3.8-3.1,6.9-6.9,6.9h-8.6c-3.8,0-6.9-3.1-6.9-6.9V29.6h-7.7v36.5c0,6.4,5.2,11.6,11.6,11.6h15.1
		c6.2,0,11.2-5,11.2-11.2V29.6H193.8z"/>
	<path d="M217.9,29.6c-6.2,0-11.2,5-11.2,11.2v36.8h7.7V43.8c0-3.8,3.1-6.9,6.9-6.9h2.1v-7.3H217.9z"/>
	<path d="M249.7,35.9v-6.3h-8.5V18.5h-7.7v11.1h-7v6.3h7v33.8v0.1c0,4.3,3.5,7.7,7.7,7.7h8.5v-7.9h-6c-1.4,0-2.5-1.1-2.5-2.5V35.9
		H249.7z"/>
	<path d="M318.3,43.2v34.4h6.7V43c0-3.7,3-6.6,6.6-6.6h10.2c3.7,0,6.6,3,6.6,6.6v34.6h6.7V43.2c0-7.5-6.1-13.6-13.6-13.6H332
		C324.4,29.6,318.3,35.7,318.3,43.2z"/>
	<polygon points="377.2,49.3 394.4,31.6 385.9,31.6 364.2,53.6 364.2,13.9 358,13.9 358,77.6 364.2,77.6 364.2,62.1 372.7,53.6 
		389.7,77.6 396.2,77.6 	"/>
	<path d="M401.7,42.5v2.3h2.7h2.3v-2c0-4.8,3.9-8.7,8.7-8.7h7.5c4.7,0,8.5,3.8,8.5,8.5v7.4h-17.2c-8.5,0-15.4,6.9-15.4,15.4v0.6
		c0,6.5,5.3,11.8,11.8,11.8h8.1c10.1,0,18.3-8.2,18.3-18.3v-9.5v-7.1c0-7.5-6.1-13.6-13.6-13.6h-8.2
		C407.7,29.1,401.7,35.1,401.7,42.5z M417.4,72.7h-5.7c-4.1,0-7.4-3.3-7.4-7.4v0c0-5.8,4.7-10.4,10.4-10.4h16.6v3.8
		C431.4,66.4,425.1,72.7,417.4,72.7z"/>
	<path class="st4" d="M279.6,36.5c0.4,0.2,0.9,0.3,1.3,0.5c5.2,1.8,9.5,3.9,13.1,6.1l-8.4-22.5C285.6,20.5,282,30,279.6,36.5z"/>
	<path d="M313.2,77.6l-1.9-4.9v0c0,0-3.1-2.6-8.5-6.3l4.2,11.2H313.2z"/>
	<path d="M285.6,20.5l8.4,22.5c3.7,2.3,6.6,4.8,8.9,7.3l-13.7-36.5h-3.6H282l-7.6,20.1c1.7,0.9,3.4,1.7,5.2,2.4
		C282,30,285.6,20.5,285.6,20.5z"/>
	<path d="M258,77.6h6.2c0,0,5-13.2,9.9-26.3c-1.8-0.9-3.4-2-5-3.1L258,77.6z"/>
	<path class="st5" d="M244.1,1.2c0,0,3.1,31.3,25,47l5.3-14.1C255.4,23.8,244.1,1.2,244.1,1.2z"/>
	<path class="st5" d="M302.9,50.4c-2.3-2.5-5.2-5-8.9-7.3c-3.6-2.3-7.9-4.3-13.1-6.1c-0.4-0.2-0.9-0.3-1.3-0.5
		c-2.2,6-2.8,7.5-5.6,14.8c1.4,0.7,2.8,1.4,4.3,2c10.2,4.2,18.7,9.2,24.4,13.1c5.4,3.6,8.5,6.3,8.5,6.3v0
		C311.3,72.7,312.8,61.3,302.9,50.4z"/>
	<path d="M274.4,34.1l-5.3,14.1c1.6,1.1,3.2,2.2,5,3.1c2.8-7.4,3.3-8.9,5.6-14.8C277.8,35.8,276.1,35,274.4,34.1z"/>
	<path class="st6" d="M295.9,77.6c0,0,1.5-14.4-20.6-23.8c-19.1-8.1-22.4-16.9-22.4-16.9s1,19.4,21.5,26.9S295.9,77.6,295.9,77.6z"
		/>
	<g>
		<path d="M258.9,98.6V87.2h6.9v1.9h-5v2.5h4.7v1.9h-4.7v3.1h5.2v1.9H258.9z"/>
		<path d="M267.6,98.6V87.2h4c1,0,1.7,0.1,2.2,0.3c0.4,0.2,0.8,0.6,1.1,1.1c0.3,0.5,0.4,1.1,0.4,1.8c0,0.9-0.2,1.6-0.6,2.1
			c-0.4,0.5-1,0.9-1.8,1c0.4,0.3,0.7,0.6,1,1c0.3,0.3,0.6,1,1.1,1.9l1.1,2.2h-2.2l-1.4-2.5c-0.5-0.9-0.8-1.5-1-1.7
			c-0.2-0.2-0.4-0.4-0.6-0.5c-0.2-0.1-0.5-0.1-0.9-0.1h-0.4v4.7H267.6z M269.5,92h1.4c0.9,0,1.4,0,1.6-0.1c0.2-0.1,0.4-0.2,0.6-0.5
			c0.1-0.2,0.2-0.5,0.2-0.9c0-0.4-0.1-0.7-0.2-0.9c-0.1-0.2-0.3-0.4-0.6-0.5c-0.2-0.1-0.7-0.1-1.5-0.1h-1.5V92z"/>
		<path d="M277,98.6V87.2h1.9v5.1l3.8-5.1h2.5l-3.5,4.4l3.7,6.9H283l-2.6-5.3l-1.5,1.9v3.4H277z"/>
		<path d="M286.4,98.6V87.2h6.9v1.9h-5v2.5h4.7v1.9h-4.7v3.1h5.2v1.9H286.4z"/>
		<path d="M295.1,98.6V87.2h1.9v5.1l3.8-5.1h2.5l-3.5,4.4l3.7,6.9h-2.4l-2.6-5.3l-1.5,1.9v3.4H295.1z"/>
		<path d="M307.8,93c0-1.4,0.2-2.5,0.6-3.3c0.4-0.9,0.9-1.5,1.6-2c0.6-0.4,1.4-0.6,2.4-0.6c1.3,0,2.4,0.5,3.3,1.5
			c0.8,1,1.3,2.5,1.3,4.4c0,1.9-0.4,3.4-1.3,4.5c-0.8,0.9-1.8,1.4-3.2,1.4c-1.4,0-2.4-0.5-3.2-1.4C308.2,96.3,307.8,94.9,307.8,93z
			 M309.7,92.9c0,1.3,0.2,2.3,0.7,2.9c0.5,0.7,1.1,1,1.8,1c0.7,0,1.4-0.3,1.8-1c0.5-0.6,0.7-1.6,0.7-3c0-1.3-0.2-2.3-0.7-2.9
			s-1.1-0.9-1.9-0.9c-0.8,0-1.4,0.3-1.9,1C310,90.6,309.7,91.6,309.7,92.9z M310.2,86v-1.9h1.5V86H310.2z M312.9,86v-1.9h1.5V86
			H312.9z"/>
		<path d="M322.6,94.4v-1.9h4.1V97c-0.4,0.5-1,0.9-1.7,1.2c-0.8,0.3-1.5,0.5-2.3,0.5c-0.9,0-1.7-0.2-2.4-0.7c-0.7-0.5-1.3-1.1-1.7-2
			c-0.4-0.9-0.6-2-0.6-3.2c0-1.3,0.2-2.3,0.6-3.2c0.4-0.9,1-1.6,1.6-2c0.7-0.4,1.5-0.7,2.4-0.7c1.1,0,2,0.3,2.7,0.8
			c0.7,0.6,1.1,1.4,1.3,2.5l-1.9,0.4c-0.1-0.6-0.4-1-0.8-1.3c-0.4-0.3-0.8-0.5-1.3-0.5c-0.8,0-1.5,0.3-1.9,0.9
			c-0.5,0.6-0.7,1.6-0.7,2.9c0,1.4,0.3,2.4,0.8,3.1c0.5,0.6,1.1,0.9,1.9,0.9c0.4,0,0.7-0.1,1.1-0.3c0.4-0.2,0.7-0.4,1.1-0.7v-1.4
			H322.6z M323.6,84.1h0.9c0,0.7-0.3,1.3-0.6,1.7c-0.4,0.4-0.8,0.6-1.4,0.6s-1-0.2-1.4-0.6c-0.4-0.4-0.6-0.9-0.6-1.7h0.9
			c0.1,0.7,0.4,1.1,1.1,1.1C323.2,85.3,323.5,84.9,323.6,84.1z"/>
		<path d="M328.4,98.6V87.2h4c1,0,1.7,0.1,2.2,0.3c0.4,0.2,0.8,0.6,1.1,1.1c0.3,0.5,0.4,1.1,0.4,1.8c0,0.9-0.2,1.6-0.6,2.1
			c-0.4,0.5-1,0.9-1.8,1c0.4,0.3,0.7,0.6,1,1c0.3,0.3,0.6,1,1.1,1.9l1.1,2.2h-2.2l-1.4-2.5c-0.5-0.9-0.8-1.5-1-1.7
			c-0.2-0.2-0.4-0.4-0.6-0.5c-0.2-0.1-0.5-0.1-0.9-0.1h-0.4v4.7H328.4z M330.3,92h1.4c0.9,0,1.4,0,1.6-0.1c0.2-0.1,0.4-0.2,0.6-0.5
			c0.1-0.2,0.2-0.5,0.2-0.9c0-0.4-0.1-0.7-0.2-0.9c-0.1-0.2-0.3-0.4-0.6-0.5c-0.2-0.1-0.7-0.1-1.5-0.1h-1.5V92z"/>
		<path d="M337.9,98.6V87.2h6.9v1.9h-5v2.5h4.7v1.9h-4.7v3.1h5.2v1.9H337.9z"/>
		<path d="M346.6,98.6V87.2h1.8l3.8,7.6v-7.6h1.8v11.4h-1.9l-3.8-7.4v7.4H346.6z"/>
		<path d="M361.9,94.4l1.8,0.7c-0.3,1.3-0.8,2.2-1.4,2.8c-0.7,0.6-1.5,0.9-2.4,0.9c-1.2,0-2.2-0.5-3-1.4c-0.9-1.1-1.3-2.5-1.3-4.4
			c0-1.9,0.4-3.5,1.3-4.6c0.8-1,1.8-1.4,3.1-1.4c1,0,1.9,0.4,2.6,1.1c0.5,0.5,0.9,1.3,1.1,2.3l-1.9,0.5c-0.1-0.6-0.4-1.1-0.7-1.4
			c-0.4-0.3-0.8-0.5-1.3-0.5c-0.7,0-1.3,0.3-1.7,0.9c-0.4,0.6-0.7,1.6-0.7,3c0,1.4,0.2,2.5,0.6,3.1c0.4,0.6,1,0.9,1.7,0.9
			c0.5,0,0.9-0.2,1.3-0.6C361.5,95.9,361.8,95.3,361.9,94.4z"/>
		<path d="M365.3,98.6V87.2h1.9v11.4H365.3z M365.4,86.2v-2.1h1.8v2.1H365.4z"/>
		<path d="M374.8,98.6v-4.8l-3.4-6.6h2.2l2.2,4.5l2.2-4.5h2.2l-3.4,6.6v4.8H374.8z"/>
		<path d="M381.1,87.2h1.9v6.2c0,1,0,1.6,0.1,1.9c0.1,0.5,0.3,0.9,0.6,1.2c0.3,0.3,0.7,0.4,1.2,0.4c0.4,0,0.8-0.1,1.1-0.3
			c0.3-0.2,0.5-0.5,0.6-0.8c0.1-0.3,0.2-1.1,0.2-2.2v-6.3h1.9v6c0,1.5-0.1,2.6-0.2,3.3c-0.2,0.7-0.5,1.2-1.1,1.7
			c-0.6,0.4-1.3,0.6-2.3,0.6c-1,0-1.7-0.2-2.3-0.5s-0.9-0.8-1.2-1.5s-0.4-1.8-0.4-3.5V87.2z"/>
		<path d="M390.5,98.6V87.2h4c1,0,1.7,0.1,2.2,0.3c0.4,0.2,0.8,0.6,1.1,1.1c0.3,0.5,0.4,1.1,0.4,1.8c0,0.9-0.2,1.6-0.6,2.1
			c-0.4,0.5-1,0.9-1.8,1c0.4,0.3,0.7,0.6,1,1c0.3,0.3,0.6,1,1.1,1.9l1.1,2.2h-2.2l-1.4-2.5c-0.5-0.9-0.8-1.5-1-1.7s-0.4-0.4-0.6-0.5
			s-0.5-0.1-0.9-0.1h-0.4v4.7H390.5z M392.4,92h1.4c0.9,0,1.4,0,1.6-0.1c0.2-0.1,0.4-0.2,0.6-0.5c0.1-0.2,0.2-0.5,0.2-0.9
			c0-0.4-0.1-0.7-0.2-0.9c-0.1-0.2-0.3-0.4-0.6-0.5c-0.2-0.1-0.7-0.1-1.5-0.1h-1.5V92z"/>
		<path d="M402,98.6v-9.5h-2.8v-1.9h7.4v1.9h-2.8v9.5H402z"/>
		<path d="M407.9,98.6V87.3h1.9v9.4h4.7v1.9H407.9z"/>
		<path d="M424.2,98.6h-2l-0.8-2.6h-3.7l-0.8,2.6h-2l3.6-11.4h2L424.2,98.6z M420.8,94.1l-1.3-4.2l-1.3,4.2H420.8z"/>
		<path d="M425.2,98.6V87.2h4c1,0,1.7,0.1,2.2,0.3c0.4,0.2,0.8,0.6,1.1,1.1c0.3,0.5,0.4,1.1,0.4,1.8c0,0.9-0.2,1.6-0.6,2.1
			c-0.4,0.5-1,0.9-1.8,1c0.4,0.3,0.7,0.6,1,1c0.3,0.3,0.6,1,1.1,1.9l1.1,2.2h-2.2l-1.4-2.5c-0.5-0.9-0.8-1.5-1-1.7
			c-0.2-0.2-0.4-0.4-0.6-0.5s-0.5-0.1-0.9-0.1h-0.4v4.7H425.2z M427.1,92h1.4c0.9,0,1.4,0,1.6-0.1c0.2-0.1,0.4-0.2,0.6-0.5
			c0.1-0.2,0.2-0.5,0.2-0.9c0-0.4-0.1-0.7-0.2-0.9c-0.1-0.2-0.3-0.4-0.6-0.5c-0.2-0.1-0.7-0.1-1.5-0.1h-1.5V92z"/>
		<path d="M434.6,98.6V87.2h1.9v11.4H434.6z"/>
	</g>
</g>
</svg>
