<?xml version="1.0" encoding="utf-8"?>
<!-- Generator: Adobe Illustrator 25.0.0, SVG Export Plug-In . SVG Version: 6.00 Build 0)  -->
<svg version="1.1" id="Layer_1" xmlns="http://www.w3.org/2000/svg" xmlns:xlink="http://www.w3.org/1999/xlink" x="0px" y="0px"
	 viewBox="0 0 231 70" style="enable-background:new 0 0 231 70;" xml:space="preserve">
<style type="text/css">
	.st0{fill:none;}
	.st1{fill:#EE1F25;}
	.st2{fill:#F58020;}
</style>
<g>
	<polygon points="19.8,55.9 23.2,55.9 23.2,37.4 39.1,10.3 32.2,10.3 19.8,31.4 7.3,10.3 0,10.3 16.6,37.4 16.6,55.9 	"/>
	<path d="M56.2,21.5v24.2c0,2.7-2.2,4.9-4.9,4.9h-6.2c-2.7,0-4.9-2.2-4.9-4.9V21.5h-5.5v26.2c0,4.6,3.7,8.3,8.3,8.3h10.7
		c4.4,0,8-3.6,8-8V21.5H56.2z"/>
	<path d="M73.5,21.5c-4.4,0-8,3.6-8,8v26.4H71V31.7c0-2.7,2.2-4.9,4.9-4.9h1.5v-5.2C77.5,21.5,73.5,21.5,73.5,21.5z"/>
	<path d="M96.4,26.1v-4.5h-6.1v-8h-5.5v8h-5v4.5h5v24.2v0.1c0,3.1,2.5,5.5,5.5,5.5h6.1v-5.7h-4.3c-1,0-1.8-0.8-1.8-1.8V26.1H96.4z"
		/>
	<path d="M145.5,31.3v24.6h4.8V31.1c0-2.7,2.1-4.7,4.7-4.7h7.3c2.7,0,4.7,2.1,4.7,4.7v24.8h4.8V31.3c0-5.4-4.4-9.7-9.7-9.7h-6.9
		C149.9,21.5,145.5,25.9,145.5,31.3z"/>
	<polygon points="187.7,35.7 200,23 193.9,23 178.4,38.7 178.4,10.3 174,10.3 174,55.9 178.4,55.9 178.4,44.8 184.5,38.7 
		196.7,55.9 201.3,55.9 	"/>
	<path d="M205.2,30.8v1.6h1.9h1.6V31c0-3.4,2.8-6.2,6.2-6.2h5.4c3.4,0,6.1,2.7,6.1,6.1v5.3h-12.3c-6.1,0-11,4.9-11,11v0.4
		c0,4.7,3.8,8.5,8.5,8.5h5.8c7.2,0,13.1-5.9,13.1-13.1v-6.8v-5.1c0-5.4-4.4-9.7-9.7-9.7h-5.9C209.5,21.2,205.2,25.5,205.2,30.8z
		 M216.4,52.4h-4.1c-2.9,0-5.3-2.4-5.3-5.3l0,0c0-4.2,3.4-7.5,7.5-7.5h11.9v2.7C226.5,47.9,222,52.4,216.4,52.4z"/>
	<path class="st0" d="M117.7,26.5c0.3,0.1,0.6,0.2,0.9,0.4c3.7,1.3,6.8,2.8,9.4,4.4l-6-16.1C122,15,119.4,21.8,117.7,26.5z"/>
	<path d="M141.8,55.9l-1.4-3.5l0,0c0,0-2.2-1.9-6.1-4.5l3,8C137.3,55.9,141.8,55.9,141.8,55.9z"/>
	<path d="M122,15l6,16.1c2.7,1.6,4.7,3.4,6.4,5.2l-9.8-26.2H122h-2.6L114,24.6c1.2,0.6,2.4,1.2,3.7,1.7C119.4,21.8,122,15,122,15z"
		/>
	<path d="M102.2,55.9h4.4c0,0,3.6-9.5,7.1-18.8c-1.3-0.6-2.4-1.4-3.6-2.2L102.2,55.9z"/>
	<path class="st1" d="M92.3,1.2c0,0,2.2,22.4,17.9,33.7l3.8-10.1C100.4,17.4,92.3,1.2,92.3,1.2z"/>
	<path class="st1" d="M134.5,36.5c-1.6-1.8-3.7-3.6-6.4-5.2c-2.6-1.6-5.7-3.1-9.4-4.4c-0.3-0.1-0.6-0.2-0.9-0.4
		c-1.6,4.3-2,5.4-4,10.6c1,0.5,2,1,3.1,1.4c7.3,3,13.4,6.6,17.5,9.4c3.9,2.6,6.1,4.5,6.1,4.5l0,0C140.4,52.4,141.6,44.3,134.5,36.5z
		"/>
	<path d="M114,24.8l-3.8,10.1c1.1,0.8,2.3,1.6,3.6,2.2c2-5.3,2.4-6.4,4-10.6C116.4,26,115.2,25.4,114,24.8z"/>
	<path class="st2" d="M129.4,55.9c0,0,1.1-10.3-14.8-17.1c-13.7-5.8-16-12.1-16-12.1s0.7,13.9,15.4,19.3S129.4,55.9,129.4,55.9z"/>
	<g>
		<path d="M103,71v-8.2h4.9v1.4h-3.6V66h3.4v1.4h-3.4v2.2h3.7v1.4L103,71L103,71z"/>
		<path d="M109.2,71v-8.2h2.9c0.7,0,1.2,0.1,1.6,0.2c0.3,0.1,0.6,0.4,0.8,0.8c0.2,0.4,0.3,0.8,0.3,1.3c0,0.6-0.1,1.1-0.4,1.5
			c-0.3,0.4-0.7,0.6-1.3,0.7c0.3,0.2,0.5,0.4,0.7,0.7c0.2,0.2,0.4,0.7,0.8,1.4l0.8,1.6h-1.6l-1-1.8c-0.4-0.6-0.6-1.1-0.7-1.2
			s-0.3-0.3-0.4-0.4c-0.1-0.1-0.4-0.1-0.6-0.1h-0.3v3.4L109.2,71L109.2,71z M110.5,66.3h1c0.6,0,1,0,1.1-0.1
			c0.1-0.1,0.3-0.1,0.4-0.4c0.1-0.1,0.1-0.4,0.1-0.6c0-0.3-0.1-0.5-0.1-0.6s-0.2-0.3-0.4-0.4c-0.1-0.1-0.5-0.1-1.1-0.1h-1.1V66.3z"
			/>
		<path d="M115.9,71v-8.2h1.4v3.7l2.7-3.7h1.8l-2.5,3.2l2.7,4.9h-1.7l-1.9-3.8l-1.1,1.4v2.4L115.9,71L115.9,71z"/>
		<path d="M122.7,71v-8.2h4.9v1.4H124V66h3.4v1.4H124v2.2h3.7v1.4L122.7,71L122.7,71z"/>
		<path d="M128.9,71v-8.2h1.4v3.7l2.7-3.7h1.8l-2.5,3.2l2.7,4.9h-1.7l-1.9-3.8l-1.1,1.4v2.4L128.9,71L128.9,71z"/>
		<path d="M137.9,67c0-1,0.1-1.8,0.4-2.4c0.3-0.6,0.6-1.1,1.1-1.4c0.4-0.3,1-0.4,1.7-0.4c0.9,0,1.7,0.4,2.4,1.1
			c0.6,0.7,0.9,1.8,0.9,3.2s-0.3,2.4-0.9,3.2c-0.6,0.6-1.3,1-2.3,1s-1.7-0.4-2.3-1C138.3,69.3,137.9,68.3,137.9,67z M139.4,66.9
			c0,0.9,0.1,1.6,0.5,2.1c0.4,0.5,0.8,0.7,1.3,0.7c0.5,0,1-0.2,1.3-0.7c0.4-0.4,0.5-1.1,0.5-2.1c0-0.9-0.1-1.6-0.5-2.1
			c-0.4-0.4-0.7-0.6-1.3-0.6s-1,0.2-1.4,0.7C139.5,65.3,139.4,66,139.4,66.9z M139.6,62v-1.4h1.1V62H139.6z M141.6,62v-1.4h1.1V62
			H141.6z"/>
		<path d="M148.6,68v-1.4h2.9v3.2c-0.3,0.4-0.7,0.6-1.2,0.9c-0.6,0.2-1.1,0.4-1.6,0.4c-0.6,0-1.2-0.1-1.7-0.5
			c-0.5-0.4-0.9-0.8-1.2-1.4c-0.3-0.6-0.4-1.4-0.4-2.3c0-0.9,0.1-1.6,0.4-2.3c0.3-0.6,0.7-1.1,1.1-1.4c0.5-0.3,1.1-0.5,1.7-0.5
			c0.8,0,1.4,0.2,1.9,0.6c0.5,0.4,0.8,1,0.9,1.8l-1.4,0.3c-0.1-0.4-0.3-0.7-0.6-0.9c-0.3-0.2-0.6-0.4-0.9-0.4
			c-0.6,0-1.1,0.2-1.4,0.6c-0.4,0.4-0.5,1.1-0.5,2.1c0,1,0.2,1.7,0.6,2.2c0.4,0.4,0.8,0.6,1.4,0.6c0.3,0,0.5-0.1,0.8-0.2
			c0.3-0.1,0.5-0.3,0.8-0.5v-1h-1.6V68z M149.2,60.6h0.6c0,0.5-0.2,0.9-0.4,1.2c-0.3,0.3-0.6,0.4-1,0.4c-0.4,0-0.7-0.1-1-0.4
			c-0.3-0.3-0.4-0.6-0.4-1.2h0.6c0.1,0.5,0.3,0.8,0.8,0.8C149,61.5,149.2,61.2,149.2,60.6z"/>
		<path d="M152.8,71v-8.2h2.9c0.7,0,1.2,0.1,1.6,0.2c0.3,0.1,0.6,0.4,0.8,0.8c0.2,0.4,0.3,0.8,0.3,1.3c0,0.6-0.1,1.1-0.4,1.5
			s-0.7,0.6-1.3,0.7c0.3,0.2,0.5,0.4,0.7,0.7c0.2,0.2,0.4,0.7,0.8,1.4l0.8,1.6h-1.6l-1-1.8c-0.4-0.6-0.6-1.1-0.7-1.2
			s-0.3-0.3-0.4-0.4c-0.1-0.1-0.4-0.1-0.6-0.1h-0.3v3.4L152.8,71L152.8,71z M154.1,66.3h1c0.6,0,1,0,1.1-0.1s0.3-0.1,0.4-0.4
			c0.1-0.1,0.1-0.4,0.1-0.6c0-0.3-0.1-0.5-0.1-0.6c-0.1-0.1-0.2-0.3-0.4-0.4c-0.1-0.1-0.5-0.1-1.1-0.1h-1.1V66.3z"/>
		<path d="M159.5,71v-8.2h4.9v1.4h-3.6V66h3.4v1.4h-3.4v2.2h3.7v1.4L159.5,71L159.5,71z"/>
		<path d="M165.7,71v-8.2h1.3l2.7,5.4v-5.4h1.3V71h-1.4l-2.7-5.3V71H165.7z"/>
		<path d="M176.8,68l1.3,0.5c-0.2,0.9-0.6,1.6-1,2c-0.5,0.4-1.1,0.6-1.7,0.6c-0.9,0-1.6-0.4-2.1-1c-0.6-0.8-0.9-1.8-0.9-3.2
			s0.3-2.5,0.9-3.3c0.6-0.7,1.3-1,2.2-1c0.7,0,1.4,0.3,1.9,0.8c0.4,0.4,0.6,0.9,0.8,1.6l-1.4,0.4c-0.1-0.4-0.3-0.8-0.5-1
			c-0.3-0.2-0.6-0.4-0.9-0.4c-0.5,0-0.9,0.2-1.2,0.6s-0.5,1.1-0.5,2.1c0,1,0.1,1.8,0.4,2.2s0.7,0.6,1.2,0.6c0.4,0,0.6-0.1,0.9-0.4
			C176.4,69.1,176.6,68.6,176.8,68z"/>
		<path d="M179.1,71v-8.2h1.4V71H179.1z M179.2,62.1v-1.5h1.3v1.5H179.2z"/>
		<path d="M186,71v-3.4l-2.4-4.7h1.6l1.6,3.2l1.6-3.2h1.6l-2.4,4.7V71H186z"/>
		<path d="M190.4,62.8h1.4v4.4c0,0.7,0,1.1,0.1,1.4c0.1,0.4,0.2,0.6,0.4,0.9c0.2,0.2,0.5,0.3,0.9,0.3c0.3,0,0.6-0.1,0.8-0.2
			c0.2-0.1,0.4-0.4,0.4-0.6s0.1-0.8,0.1-1.6v-4.5h1.4v4.3c0,1.1-0.1,1.9-0.1,2.4c-0.1,0.5-0.4,0.9-0.8,1.2c-0.4,0.3-0.9,0.4-1.6,0.4
			s-1.2-0.1-1.6-0.4c-0.4-0.2-0.6-0.6-0.9-1.1c-0.2-0.5-0.3-1.3-0.3-2.5L190.4,62.8L190.4,62.8z"/>
		<path d="M197.2,71v-8.2h2.9c0.7,0,1.2,0.1,1.6,0.2c0.3,0.1,0.6,0.4,0.8,0.8c0.2,0.4,0.3,0.8,0.3,1.3c0,0.6-0.1,1.1-0.4,1.5
			s-0.7,0.6-1.3,0.7c0.3,0.2,0.5,0.4,0.7,0.7c0.2,0.2,0.4,0.7,0.8,1.4l0.8,1.6h-1.6l-1-1.8c-0.4-0.6-0.6-1.1-0.7-1.2
			c-0.1-0.1-0.3-0.3-0.4-0.4c-0.1-0.1-0.4-0.1-0.6-0.1h-0.3v3.4L197.2,71L197.2,71z M198.5,66.3h1c0.6,0,1,0,1.1-0.1
			c0.1-0.1,0.3-0.1,0.4-0.4c0.1-0.1,0.1-0.4,0.1-0.6c0-0.3-0.1-0.5-0.1-0.6s-0.2-0.3-0.4-0.4c-0.1-0.1-0.5-0.1-1.1-0.1h-1.1V66.3z"
			/>
		<path d="M205.4,71v-6.8h-2v-1.4h5.3v1.4h-2V71H205.4z"/>
		<path d="M209.6,71v-8.1h1.4v6.7h3.4V71C214.4,71,209.6,71,209.6,71z"/>
		<path d="M221.4,71H220l-0.6-1.9h-2.7l-0.6,1.9h-1.4l2.6-8.2h1.4L221.4,71z M218.9,67.8l-0.9-3l-0.9,3H218.9z"/>
		<path d="M222.1,71v-8.2h2.9c0.7,0,1.2,0.1,1.6,0.2c0.3,0.1,0.6,0.4,0.8,0.8c0.2,0.4,0.3,0.8,0.3,1.3c0,0.6-0.1,1.1-0.4,1.5
			s-0.7,0.6-1.3,0.7c0.3,0.2,0.5,0.4,0.7,0.7c0.2,0.2,0.4,0.7,0.8,1.4l0.8,1.6h-1.6l-1-1.8c-0.4-0.6-0.6-1.1-0.7-1.2
			c-0.1-0.1-0.3-0.3-0.4-0.4s-0.4-0.1-0.6-0.1h-0.3v3.4L222.1,71L222.1,71z M223.4,66.3h1c0.6,0,1,0,1.1-0.1
			c0.1-0.1,0.3-0.1,0.4-0.4c0.1-0.1,0.1-0.4,0.1-0.6c0-0.3-0.1-0.5-0.1-0.6s-0.2-0.3-0.4-0.4c-0.1-0.1-0.5-0.1-1.1-0.1h-1.1V66.3z"
			/>
		<path d="M228.8,71v-8.2h1.4V71H228.8z"/>
	</g>
</g>
</svg>
